<svg width="580" height="585" viewBox="0 0 580 585" fill="none" xmlns="http://www.w3.org/2000/svg">
<path d="M0 64.4351C0 31.298 26.8629 4.43506 60 4.43506H71.3154C104.452 4.43506 131.315 31.298 131.315 64.4351V493.079C131.315 543.846 90.161 585 39.3946 585V585C17.6376 585 0 567.362 0 545.605V64.4351Z" fill="#00FF8B"/>
<path d="M116.607 140.217C63.7975 140.63 20.6778 98.1549 20.296 45.3456V45.3456C20.1324 22.713 38.347 4.22218 60.9795 4.04513L537.095 0.32038C559.727 0.143322 578.207 18.3471 578.371 40.9797V40.9797C578.752 93.789 536.252 136.934 483.442 137.347L116.607 140.217Z" fill="#00FF8B"/>
<path d="M174.798 202.19C174.925 185.032 188.937 171.226 206.094 171.352V171.352C223.252 171.479 237.059 185.491 236.932 202.649L235.423 406.95C235.246 430.971 215.629 450.3 191.608 450.123V450.123C181.314 450.047 173.03 441.639 173.106 431.345L174.798 202.19Z" fill="#00FF8B"/>
<path d="M230.404 236.75C205.037 236.764 184.478 216.212 184.485 190.845V190.845C184.488 179.973 193.303 171.155 204.175 171.149L428.882 171.023C439.754 171.017 448.565 179.826 448.562 190.697V190.697C448.555 216.065 427.986 236.64 402.619 236.654L230.404 236.75Z" fill="#00FF8B"/>
<path d="M271.411 305.375C270.665 294.264 270.292 288.709 272.238 284.694C273.944 281.173 276.815 278.41 280.321 276.913C284.319 275.207 289.614 276.025 300.204 277.662L310.589 279.266C327.122 281.822 335.389 283.099 339.119 287.281C342.363 290.919 343.831 295.901 343.108 300.814C342.277 306.465 336.131 312.38 323.838 324.212L314.185 333.504C301.893 345.335 295.747 351.251 290.268 351.675C285.503 352.044 280.843 350.134 277.609 346.487C273.891 342.293 273.308 333.619 272.143 316.272L271.411 305.375Z" fill="#00FF8B"/>
</svg>
